<?xml version="1.0" standalone="no"?>
<!DOCTYPE svg PUBLIC "-//W3C//DTD SVG 20010904//EN"
 "http://www.w3.org/TR/2001/REC-SVG-20010904/DTD/svg10.dtd">
<svg version="1.0" xmlns="http://www.w3.org/2000/svg"
 width="966.000000pt" height="966.000000pt" viewBox="0 0 966.000000 966.000000"
 preserveAspectRatio="xMidYMid meet">
<metadata>
Created by potrace 1.11, written by Peter Selinger 2001-2013
</metadata>
<g transform="translate(0.000000,966.000000) scale(0.100000,-0.100000)"
fill="#000000" stroke="none">
<path d="M10 4830 l0 -4830 1850 0 1850 0 0 360 0 360 -1490 0 -1490 0 0 4110
0 4110 1490 0 1490 0 0 360 0 360 -1850 0 -1850 0 0 -4830z"/>
<path d="M5950 9300 l0 -360 1490 0 1490 0 0 -4110 0 -4110 -1490 0 -1490 0 0
-360 0 -360 1850 0 1850 0 0 4830 0 4830 -1850 0 -1850 0 0 -360z"/>
<path d="M2870 6320 l0 -390 540 0 540 0 0 -1555 0 -1555 390 0 390 0 0 1555
0 1555 1030 0 1030 0 0 390 0 390 -1960 0 -1960 0 0 -390z"/>
<path d="M5170 4830 l0 -390 670 0 670 0 0 390 0 390 -670 0 -670 0 0 -390z"/>
</g>
</svg>
